<svg width="32" height="32" viewBox="0 0 32 32" fill="none" xmlns="http://www.w3.org/2000/svg">
  <rect width="32" height="32" rx="8" fill="#0B0B45"/>
  <path d="M16 4C9.373 4 4 9.373 4 16C4 22.627 9.373 28 16 28C22.627 28 28 22.627 28 16C28 9.373 22.627 4 16 4ZM21.5 17H17V21.5C17 22.052 16.552 22.5 16 22.5C15.448 22.5 15 22.052 15 21.5V17H10.5C9.948 17 9.5 16.552 9.5 16C9.5 15.448 9.948 15 10.5 15H15V10.5C15 9.948 15.448 9.5 16 9.5C16.552 9.5 17 9.948 17 10.5V15H21.5C22.052 15 22.5 15.448 22.5 16C22.5 16.552 22.052 17 21.5 17Z" fill="white"/>
</svg> 